<?xml version="1.0" standalone="no"?>
<!DOCTYPE svg PUBLIC "-//W3C//DTD SVG 20010904//EN"
 "http://www.w3.org/TR/2001/REC-SVG-20010904/DTD/svg10.dtd">
<svg version="1.0" xmlns="http://www.w3.org/2000/svg"
 width="1280.000000pt" height="1280.000000pt" viewBox="0 0 1280.000000 1280.000000"
 preserveAspectRatio="xMidYMid meet">

<g transform="translate(0.000000,1280.000000) scale(0.100000,-0.100000)"
fill="#000000" stroke="none">
<path d="M1439 12796 c-2 -2 -35 -6 -74 -9 -267 -23 -532 -131 -775 -314 -62
-46 -231 -217 -276 -278 -152 -207 -259 -456 -290 -670 -3 -27 -9 -59 -13 -70
-3 -11 -7 -2252 -9 -4980 -2 -3695 0 -4991 8 -5080 21 -215 62 -357 162 -555
81 -160 147 -252 271 -378 140 -143 235 -211 422 -302 179 -88 298 -123 490
-146 184 -21 9912 -21 10090 1 168 20 278 49 422 111 343 147 603 392 768 724
66 132 81 172 116 310 51 199 49 -52 49 5240 0 4371 -2 4940 -15 5050 -26 204
-57 307 -155 505 -81 163 -137 242 -269 379 -130 133 -239 213 -406 296 -147
73 -192 90 -315 121 -199 51 53 49 -5256 49 -2717 0 -4943 -2 -4945 -4z
m10014 -267 c528 -79 950 -479 1064 -1009 17 -82 18 -284 18 -5120 0 -4831 -1
-5038 -18 -5120 -108 -505 -492 -889 -997 -997 -82 -17 -289 -18 -5120 -18
-4836 0 -5038 1 -5120 18 -506 109 -889 492 -997 997 -17 82 -18 289 -18 5120
0 5419 -3 5022 40 5220 9 40 61 164 101 240 180 338 506 584 869 654 44 8 89
17 100 19 11 3 2267 5 5013 6 3534 1 5014 -2 5065 -10z"/>
<path d="M6130 10864 c-25 -2 -110 -9 -190 -14 -555 -41 -1366 -200 -1821
-356 -168 -58 -346 -134 -486 -209 -256 -136 -421 -298 -518 -508 -71 -156
-50 -16 -315 -2057 l-130 -1005 0 -1907 0 -1908 315 0 315 0 0 -343 c0 -311 2
-351 20 -422 37 -144 128 -258 261 -324 270 -135 603 -33 729 222 53 109 60
166 60 535 l0 332 2030 0 2030 0 0 -345 c0 -218 4 -363 11 -397 50 -234 241
-392 489 -405 268 -15 497 154 549 405 7 32 11 186 11 397 l0 345 315 0 315 0
0 1918 c0 1871 -1 1921 -20 2072 -27 202 -20 152 -160 1230 -188 1456 -186
1436 -215 1530 -96 302 -274 489 -635 670 -74 37 -198 92 -275 123 -446 176
-1244 343 -1950 407 -120 11 -650 21 -735 14z m2061 -636 c79 -47 127 -136
136 -255 10 -132 -36 -245 -126 -308 l-43 -30 -1741 -3 c-1257 -2 -1753 0
-1780 8 -88 25 -161 142 -174 274 -14 149 70 302 183 336 16 5 810 8 1764 7
l1735 -2 46 -27z m817 -998 c68 -35 116 -83 144 -147 14 -31 48 -259 124 -821
57 -427 125 -928 151 -1112 54 -393 58 -465 25 -531 -31 -63 -86 -117 -152
-148 l-55 -26 -2845 0 -2845 0 -53 24 c-71 32 -147 115 -167 183 -19 64 -19
77 0 208 19 139 73 541 190 1415 53 396 103 743 110 771 26 91 97 166 192 200
32 11 468 13 2579 14 l2541 0 61 -30z m-5008 -4071 c335 -98 495 -476 338
-799 -38 -78 -157 -202 -235 -243 -66 -35 -191 -67 -263 -67 -258 0 -480 168
-554 419 -23 79 -21 232 4 312 92 301 406 468 710 378z m5110 4 c226 -62 388
-259 415 -503 9 -82 -17 -207 -62 -298 -92 -186 -296 -312 -506 -312 -258 1
-492 188 -552 443 -30 125 -15 249 45 372 50 101 101 161 195 224 139 93 304
119 465 74z"/>
</g>
</svg>
