<svg version="1.1" id="Layer_1" xmlns="http://www.w3.org/2000/svg" xmlns:xlink="http://www.w3.org/1999/xlink" x="0px" y="0px"
	 width="100%" viewBox="0 0 1280 1280" enable-background="new 0 0 1280 1280" xml:space="preserve">
<path fill="#FF0F9B" opacity="1.000000" stroke="none" 
	d="
M1281.000000,139.000000 
	C1281.000000,473.364258 1281.000000,807.728516 1280.612305,1142.594727 
	C1279.193481,1148.517212 1278.231934,1153.952148 1277.112549,1159.354614 
	C1275.846680,1165.462769 1274.953613,1171.716431 1272.957520,1177.586914 
	C1270.673096,1184.305176 1267.336548,1190.663940 1264.490601,1197.193604 
	C1262.689819,1201.325562 1261.241333,1205.644409 1259.077515,1209.572510 
	C1257.702271,1212.069336 1254.038574,1213.792969 1253.633545,1216.233887 
	C1252.827759,1221.090454 1248.492188,1222.246582 1246.168213,1225.366821 
	C1245.399170,1226.399414 1244.253784,1227.143799 1243.417236,1228.135620 
	C1240.742798,1231.306641 1238.403931,1234.817383 1235.419189,1237.653564 
	C1232.609863,1240.323120 1229.016602,1242.146484 1226.001953,1244.626221 
	C1222.225098,1247.733032 1219.153320,1252.006714 1214.958862,1254.238770 
	C1201.559326,1261.369019 1189.094727,1270.245850 1173.704590,1273.662476 
	C1164.390015,1275.730225 1155.528931,1279.686646 1145.674316,1279.118164 
	C1144.821777,1279.068970 1143.893188,1280.341431 1143.000000,1281.000000 
	C808.635742,1281.000000 474.271515,1281.000000 139.413177,1280.611450 
	C133.967026,1279.208618 129.036087,1277.474487 124.058578,1277.328491 
	C113.366737,1277.015137 103.908958,1272.664185 94.357574,1268.909302 
	C85.190742,1265.305542 76.498787,1260.474976 67.683006,1256.015869 
	C66.177643,1255.254395 65.084702,1253.664551 63.825150,1252.432861 
	C60.404053,1249.087769 57.053612,1245.667725 53.568142,1242.391357 
	C48.945839,1238.046265 44.215427,1233.816406 39.544895,1229.522461 
	C37.354927,1227.509033 34.713860,1225.779053 33.124496,1223.363159 
	C29.845196,1218.378540 27.582888,1212.696045 24.103935,1207.876953 
	C14.482307,1194.549072 9.438648,1179.298462 5.140878,1163.784302 
	C3.580361,1158.151001 3.723226,1152.056885 2.891754,1146.200928 
	C2.730786,1145.067383 1.654196,1144.063721 0.999980,1143.000000 
	C1.000000,807.635742 1.000000,472.271515 1.320918,136.254471 
	C2.704329,131.745895 4.451545,127.933235 4.697598,124.026031 
	C5.366334,113.406792 8.880635,103.566399 13.175933,94.179344 
	C17.319660,85.123543 22.895807,76.688683 28.225422,68.221962 
	C31.876513,62.421783 35.208344,55.756325 40.432514,51.771374 
	C47.685150,46.239124 52.075520,38.170448 60.420578,33.362274 
	C69.117645,28.351282 76.706856,21.329681 86.003860,16.787622 
	C96.533447,11.643389 107.447426,7.959776 118.778595,5.267109 
	C124.532158,3.899870 130.260345,2.425785 136.000000,1.000000 
	C471.364258,1.000000 806.728516,1.000000 1142.587158,1.388951 
	C1143.708130,2.172010 1144.326782,2.886571 1144.962891,2.902275 
	C1147.192505,2.957325 1149.510376,2.346264 1151.645020,2.760511 
	C1157.104858,3.820086 1162.569336,5.021705 1167.875366,6.670205 
	C1175.391724,9.005428 1182.995361,11.291718 1190.134888,14.537795 
	C1196.398804,17.385775 1203.126221,19.249256 1208.483154,24.383474 
	C1212.866577,28.584745 1219.203491,30.682566 1223.915283,34.621056 
	C1232.414307,41.725334 1238.898804,51.063568 1248.359375,57.182709 
	C1248.714966,57.412685 1248.833618,58.005138 1249.068848,58.425301 
	C1252.071045,63.786907 1255.099365,69.134087 1258.071411,74.512367 
	C1261.870728,81.388161 1266.164673,88.058281 1269.236206,95.248199 
	C1271.948242,101.596161 1273.068970,108.604713 1275.269653,115.195587 
	C1277.622314,122.241867 1279.982666,129.201950 1279.132568,136.819458 
	C1279.060059,137.468735 1280.345459,138.269577 1281.000000,139.000000 
M26.442223,1127.976929 
	C26.442223,1127.976929 26.845867,1127.953125 26.993559,1128.866089 
	C27.228493,1145.839233 29.996134,1162.469360 37.224602,1177.786743 
	C60.702927,1227.538086 100.115768,1254.691528 155.293045,1254.763184 
	C478.416840,1255.182739 801.541443,1254.985107 1124.665771,1254.885010 
	C1133.279541,1254.882324 1142.032349,1254.375244 1150.482300,1252.814575 
	C1186.095947,1246.236450 1213.985840,1227.647949 1234.126953,1197.511963 
	C1248.194458,1176.463623 1254.586426,1153.087646 1255.548462,1127.984985 
	C1255.548462,1127.984985 1255.942871,1128.011963 1256.427612,1127.333008 
	C1256.618408,1125.528564 1256.976196,1123.724121 1256.976318,1121.919678 
	C1257.000854,801.271606 1257.001587,480.623505 1256.964478,159.975418 
	C1256.964233,158.033386 1256.426758,156.091415 1255.946289,153.652908 
	C1255.675781,153.433746 1255.405151,153.214600 1255.003418,152.178986 
	C1253.362061,109.770119 1235.799072,75.595573 1201.494995,50.528057 
	C1178.145386,33.465427 1151.570923,26.837345 1122.738770,26.851379 
	C801.942627,27.007547 481.146484,26.957495 160.350357,26.923426 
	C146.654922,26.921972 133.154602,27.902483 119.904388,31.741177 
	C85.040703,41.841469 59.129501,62.983711 41.803654,94.729294 
	C31.717049,113.210632 27.396549,133.211060 26.504522,154.083176 
	C26.504522,154.083176 26.182581,154.039413 25.656427,154.680267 
	C25.437819,156.475174 25.027822,158.270081 25.027666,160.065002 
	C24.999540,480.787476 24.998812,801.509949 25.043453,1122.232422 
	C25.043720,1124.153931 25.692450,1126.075317 26.442223,1127.976929 
z"/>
<path fill="#757575" opacity="1.000000" stroke="none" 
	d="
M1281.000000,138.531342 
	C1280.345459,138.269577 1279.060059,137.468735 1279.132568,136.819458 
	C1279.982666,129.201950 1277.622314,122.241867 1275.269653,115.195587 
	C1273.068970,108.604713 1271.948242,101.596161 1269.236206,95.248199 
	C1266.164673,88.058281 1261.870728,81.388161 1258.071411,74.512367 
	C1255.099365,69.134087 1252.071045,63.786907 1249.068848,58.425301 
	C1248.833618,58.005138 1248.714966,57.412685 1248.359375,57.182709 
	C1238.898804,51.063568 1232.414307,41.725334 1223.915283,34.621056 
	C1219.203491,30.682566 1212.866577,28.584745 1208.483154,24.383474 
	C1203.126221,19.249256 1196.398804,17.385775 1190.134888,14.537795 
	C1182.995361,11.291718 1175.391724,9.005428 1167.875366,6.670205 
	C1162.569336,5.021705 1157.104858,3.820086 1151.645020,2.760511 
	C1149.510376,2.346264 1147.192505,2.957325 1144.962891,2.902275 
	C1144.326782,2.886571 1143.708130,2.172010 1143.040771,1.388951 
	C1188.927002,1.000000 1234.854004,1.000000 1281.000000,1.000000 
	C1281.000000,46.687328 1281.000000,92.375008 1281.000000,138.531342 
z"/>
<path fill="#757575" opacity="1.000000" stroke="none" 
	d="
M0.999980,1143.468628 
	C1.654196,1144.063721 2.730786,1145.067383 2.891754,1146.200928 
	C3.723226,1152.056885 3.580361,1158.151001 5.140878,1163.784302 
	C9.438648,1179.298462 14.482307,1194.549072 24.103935,1207.876953 
	C27.582888,1212.696045 29.845196,1218.378540 33.124496,1223.363159 
	C34.713860,1225.779053 37.354927,1227.509033 39.544895,1229.522461 
	C44.215427,1233.816406 48.945839,1238.046265 53.568142,1242.391357 
	C57.053612,1245.667725 60.404053,1249.087769 63.825150,1252.432861 
	C65.084702,1253.664551 66.177643,1255.254395 67.683006,1256.015869 
	C76.498787,1260.474976 85.190742,1265.305542 94.357574,1268.909302 
	C103.908958,1272.664185 113.366737,1277.015137 124.058578,1277.328491 
	C129.036087,1277.474487 133.967026,1279.208618 138.959534,1280.611450 
	C93.073006,1281.000000 47.146019,1281.000000 1.000000,1281.000000 
	C1.000000,1235.312622 1.000000,1189.625000 0.999980,1143.468628 
z"/>
<path fill="#757575" opacity="1.000000" stroke="none" 
	d="
M135.531342,1.000000 
	C130.260345,2.425785 124.532158,3.899870 118.778595,5.267109 
	C107.447426,7.959776 96.533447,11.643389 86.003860,16.787622 
	C76.706856,21.329681 69.117645,28.351282 60.420578,33.362274 
	C52.075520,38.170448 47.685150,46.239124 40.432514,51.771374 
	C35.208344,55.756325 31.876513,62.421783 28.225422,68.221962 
	C22.895807,76.688683 17.319660,85.123543 13.175933,94.179344 
	C8.880635,103.566399 5.366334,113.406792 4.697598,124.026031 
	C4.451545,127.933235 2.704329,131.745895 1.320918,135.800842 
	C1.000000,91.072998 1.000000,46.146004 1.000000,1.000000 
	C45.687321,1.000000 90.375000,1.000000 135.531342,1.000000 
z"/>
<path fill="#757575" opacity="1.000000" stroke="none" 
	d="
M1143.468628,1281.000000 
	C1143.893188,1280.341431 1144.821777,1279.068970 1145.674316,1279.118164 
	C1155.528931,1279.686646 1164.390015,1275.730225 1173.704590,1273.662476 
	C1189.094727,1270.245850 1201.559326,1261.369019 1214.958862,1254.238770 
	C1219.153320,1252.006714 1222.225098,1247.733032 1226.001953,1244.626221 
	C1229.016602,1242.146484 1232.609863,1240.323120 1235.419189,1237.653564 
	C1238.403931,1234.817383 1240.742798,1231.306641 1243.417236,1228.135620 
	C1244.253784,1227.143799 1245.399170,1226.399414 1246.168213,1225.366821 
	C1248.492188,1222.246582 1252.827759,1221.090454 1253.633545,1216.233887 
	C1254.038574,1213.792969 1257.702271,1212.069336 1259.077515,1209.572510 
	C1261.241333,1205.644409 1262.689819,1201.325562 1264.490601,1197.193604 
	C1267.336548,1190.663940 1270.673096,1184.305176 1272.957520,1177.586914 
	C1274.953613,1171.716431 1275.846680,1165.462769 1277.112549,1159.354614 
	C1278.231934,1153.952148 1279.193481,1148.517212 1280.612305,1143.048340 
	C1281.000000,1188.927002 1281.000000,1234.854004 1281.000000,1281.000000 
	C1235.312622,1281.000000 1189.625000,1281.000000 1143.468628,1281.000000 
z"/>
<path fill="#FFFFFF" opacity="1.000000" stroke="none" 
	d="
M1255.154297,1127.954590 
	C1254.586426,1153.087646 1248.194458,1176.463623 1234.126953,1197.511963 
	C1213.985840,1227.647949 1186.095947,1246.236450 1150.482300,1252.814575 
	C1142.032349,1254.375244 1133.279541,1254.882324 1124.665771,1254.885010 
	C801.541443,1254.985107 478.416840,1255.182739 155.293045,1254.763184 
	C100.115768,1254.691528 60.702927,1227.538086 37.224602,1177.786743 
	C29.996134,1162.469360 27.228493,1145.839233 26.983692,1127.963135 
	C26.982389,1126.393555 26.998457,1125.726929 26.998459,1125.060425 
	C26.999636,802.911194 26.999966,480.761963 26.992722,158.612717 
	C26.992687,157.116898 26.885035,155.621078 26.827641,154.125259 
	C27.396549,133.211060 31.717049,113.210632 41.803654,94.729294 
	C59.129501,62.983711 85.040703,41.841469 119.904388,31.741177 
	C133.154602,27.902483 146.654922,26.921972 160.350357,26.923426 
	C481.146484,26.957495 801.942627,27.007547 1122.738770,26.851379 
	C1151.570923,26.837345 1178.145386,33.465427 1201.494995,50.528057 
	C1235.799072,75.595573 1253.362061,109.770119 1255.001953,153.041656 
	C1255.000244,476.758392 1254.999756,799.612488 1255.006348,1122.466553 
	C1255.006348,1124.295898 1255.102905,1126.125244 1255.154297,1127.954590 
M953.994446,990.984863 
	C973.049438,990.943665 992.104370,990.902466 1012.009949,990.938782 
	C1012.345825,989.286499 1012.975098,987.634399 1012.975708,985.981995 
	C1013.023071,860.446899 1013.025940,734.911804 1012.982910,609.376709 
	C1012.982117,607.093445 1012.388306,604.810364 1012.194275,601.702026 
	C1010.805725,591.011230 1009.399048,580.322754 1008.031921,569.629211 
	C1004.512268,542.098572 1001.078613,514.556641 997.477173,487.036743 
	C995.035156,468.376190 992.258240,449.759338 989.832031,431.096832 
	C987.549438,413.539032 985.628235,395.934357 983.363281,378.374146 
	C981.625671,364.902496 978.978882,351.520721 977.831116,338.006012 
	C975.350159,308.794128 962.930054,285.098328 939.997192,267.006653 
	C920.846191,251.898468 898.711670,242.248871 876.032654,234.070358 
	C833.908997,218.879669 790.159668,210.118439 746.066895,203.074295 
	C732.523743,200.910690 718.802979,199.858795 705.163086,198.301712 
	C695.401184,197.187332 685.663757,195.622101 675.870056,195.084686 
	C663.659119,194.414612 651.395691,194.267166 639.165527,194.485748 
	C622.068115,194.791321 604.916199,194.927002 587.905518,196.451355 
	C568.561890,198.184769 549.178955,200.481400 530.116211,204.120834 
	C498.561951,210.145111 467.079651,216.744919 435.885712,224.400635 
	C406.119843,231.705872 377.854370,243.347351 351.695526,259.546112 
	C327.735168,274.383423 311.472351,295.186737 305.857330,323.121307 
	C302.770569,338.477783 301.063599,354.122101 299.006714,369.672638 
	C295.825317,393.724945 292.933899,417.815460 289.813080,441.875946 
	C286.938446,464.038361 283.916473,486.181610 280.972321,508.335022 
	C278.376862,527.864807 275.742950,547.389648 273.233185,566.930481 
	C271.478302,580.593689 269.904083,594.280090 268.095795,608.889648 
	C268.082855,734.965271 268.067596,861.040833 268.091492,987.116455 
	C268.091705,988.313538 268.612579,989.510498 269.837891,990.899902 
	C289.230408,990.893066 308.622955,990.886230 328.827667,991.016174 
	C329.423462,992.458801 330.528046,993.898010 330.537689,995.344482 
	C330.656097,1013.158081 330.625549,1030.972778 330.609863,1048.787109 
	C330.601166,1058.668213 331.829529,1068.342529 336.167755,1077.328369 
	C346.850433,1099.455811 372.971710,1110.869751 398.171661,1104.574097 
	C423.035095,1098.362671 438.906799,1077.018433 438.022034,1050.237549 
	C437.974030,1030.787354 437.925995,1011.337097 438.237671,991.361511 
	C438.846954,991.197754 439.456207,991.033997 440.576111,990.959473 
	C440.744690,990.921448 440.913239,990.883362 441.997742,990.984985 
	C573.976807,990.992065 705.955933,990.999512 837.934998,990.999634 
	C838.931213,990.999634 839.927490,990.898682 841.487000,990.953857 
	C841.675232,990.919861 841.863464,990.885925 842.832642,991.300720 
	C843.011536,993.432800 843.340027,995.564575 843.345459,997.697083 
	C843.388062,1014.338867 843.303101,1030.981201 843.407654,1047.622437 
	C843.439087,1052.614868 843.395325,1057.710083 844.330017,1062.576904 
	C848.248108,1082.977783 859.705627,1097.503052 879.824036,1103.516602 
	C900.318298,1109.642578 919.360535,1106.131226 935.229858,1090.960693 
	C947.065857,1079.645874 950.556702,1064.972290 950.628174,1049.216919 
	C950.707458,1031.743286 950.594727,1014.268860 950.689453,996.795471 
	C950.700195,994.812073 951.510254,992.832947 952.514221,990.953918 
	C952.701538,990.917542 952.888794,990.881165 953.994446,990.984863 
z"/>
<path fill="#FF0263" opacity="1.000000" stroke="none" 
	d="
M1255.351318,1127.969727 
	C1255.102905,1126.125244 1255.006348,1124.295898 1255.006348,1122.466553 
	C1254.999756,799.612488 1255.000244,476.758392 1255.067383,153.449875 
	C1255.405151,153.214600 1255.675781,153.433746 1255.996338,154.354080 
	C1256.030884,157.388275 1256.001953,159.721283 1256.001953,162.054306 
	C1255.999878,481.207184 1256.000244,800.360046 1255.997681,1119.512939 
	C1255.997681,1122.345947 1255.961914,1125.178955 1255.942871,1128.011963 
	C1255.942871,1128.011963 1255.548462,1127.984985 1255.351318,1127.969727 
z"/>
<path fill="#FF08BA" opacity="1.000000" stroke="none" 
	d="
M26.038364,1127.996826 
	C25.692450,1126.075317 25.043720,1124.153931 25.043453,1122.232422 
	C24.998812,801.509949 24.999540,480.787476 25.027666,160.065002 
	C25.027822,158.270081 25.437819,156.475174 25.855099,154.807053 
	C26.035860,157.099167 26.002272,159.264511 26.002256,161.429840 
	C25.999945,481.286652 25.999960,801.143433 26.001623,1121.000244 
	C26.001635,1123.332397 26.025589,1125.664673 26.038364,1127.996826 
z"/>
<path fill="#FF08BA" opacity="1.000000" stroke="none" 
	d="
M1256.185303,1127.672485 
	C1255.961914,1125.178955 1255.997681,1122.345947 1255.997681,1119.512939 
	C1256.000244,800.360046 1255.999878,481.207184 1256.001953,162.054306 
	C1256.001953,159.721283 1256.030884,157.388275 1256.093262,154.602341 
	C1256.426758,156.091415 1256.964233,158.033386 1256.964478,159.975418 
	C1257.001587,480.623505 1257.000854,801.271606 1256.976318,1121.919678 
	C1256.976196,1123.724121 1256.618408,1125.528564 1256.185303,1127.672485 
z"/>
<path fill="#FF0263" opacity="1.000000" stroke="none" 
	d="
M26.240294,1127.986816 
	C26.025589,1125.664673 26.001635,1123.332397 26.001623,1121.000244 
	C25.999960,801.143433 25.999945,481.286652 26.002256,161.429840 
	C26.002272,159.264511 26.035860,157.099167 26.118176,154.486633 
	C26.182581,154.039413 26.504522,154.083176 26.666080,154.104218 
	C26.885035,155.621078 26.992687,157.116898 26.992722,158.612717 
	C26.999966,480.761963 26.999636,802.911194 26.998459,1125.060425 
	C26.998457,1125.726929 26.982389,1126.393555 26.909847,1127.506592 
	C26.845867,1127.953125 26.442223,1127.976929 26.240294,1127.986816 
z"/>
<path fill="#FF0F9B" opacity="1.000000" stroke="none" 
	d="
M437.859833,1051.201904 
	C438.906799,1077.018433 423.035095,1098.362671 398.171661,1104.574097 
	C372.971710,1110.869751 346.850433,1099.455811 336.167755,1077.328369 
	C331.829529,1068.342529 330.601166,1058.668213 330.609863,1048.787109 
	C330.625549,1030.972778 330.656097,1013.158081 330.537689,995.344482 
	C330.528046,993.898010 329.423462,992.458801 328.416870,990.739807 
	C328.006104,990.463440 327.977661,990.048401 327.908325,989.774414 
	C327.219269,989.335266 326.599518,989.025757 325.979858,989.026062 
	C307.728210,989.035278 289.476532,989.075256 271.188721,988.635742 
	C271.100342,985.496704 271.002655,982.832214 271.002502,980.167725 
	C270.994965,858.521301 271.002258,736.874939 270.949860,615.228516 
	C270.948822,612.820740 270.259338,610.413147 269.617188,608.005737 
	C268.978638,607.989380 268.613922,607.972778 268.249176,607.956177 
	C269.904083,594.280090 271.478302,580.593689 273.233185,566.930481 
	C275.742950,547.389648 278.376862,527.864807 280.972321,508.335022 
	C283.916473,486.181610 286.938446,464.038361 289.813080,441.875946 
	C292.933899,417.815460 295.825317,393.724945 299.006714,369.672638 
	C301.063599,354.122101 302.770569,338.477783 305.857330,323.121307 
	C311.472351,295.186737 327.735168,274.383423 351.695526,259.546112 
	C377.854370,243.347351 406.119843,231.705872 435.885712,224.400635 
	C467.079651,216.744919 498.561951,210.145111 530.116211,204.120834 
	C549.178955,200.481400 568.561890,198.184769 587.905518,196.451355 
	C604.916199,194.927002 622.068115,194.791321 639.165527,194.485748 
	C651.395691,194.267166 663.659119,194.414612 675.870056,195.084686 
	C685.663757,195.622101 695.401184,197.187332 705.163086,198.301712 
	C718.802979,199.858795 732.523743,200.910690 746.066895,203.074295 
	C790.159668,210.118439 833.908997,218.879669 876.032654,234.070358 
	C898.711670,242.248871 920.846191,251.898468 939.997192,267.006653 
	C962.930054,285.098328 975.350159,308.794128 977.831116,338.006012 
	C978.978882,351.520721 981.625671,364.902496 983.363281,378.374146 
	C985.628235,395.934357 987.549438,413.539032 989.832031,431.096832 
	C992.258240,449.759338 995.035156,468.376190 997.477173,487.036743 
	C1001.078613,514.556641 1004.512268,542.098572 1008.031921,569.629211 
	C1009.399048,580.322754 1010.805725,591.011230 1012.090210,602.576904 
	C1011.657471,607.082275 1011.042908,610.712646 1011.041443,614.343323 
	C1010.991577,736.707825 1011.000366,859.072327 1010.998840,981.436829 
	C1010.998779,988.993408 1010.991638,988.997498 1003.265503,988.999146 
	C988.781555,989.002197 974.297363,988.964844 959.813843,989.041809 
	C957.880249,989.052063 955.949707,989.630249 953.830078,989.980713 
	C953.642395,990.015991 953.261292,990.041626 952.954285,990.011230 
	C952.441772,989.973083 952.236206,989.965271 951.988159,989.892212 
	C951.945679,989.827026 951.743042,989.832703 951.743042,989.832703 
	C951.743042,989.832703 951.963623,990.026428 951.959961,990.232788 
	C951.956360,990.439148 951.949768,990.851868 951.949768,990.851868 
	C951.510254,992.832947 950.700195,994.812073 950.689453,996.795471 
	C950.594727,1014.268860 950.707458,1031.743286 950.628174,1049.216919 
	C950.556702,1064.972290 947.065857,1079.645874 935.229858,1090.960693 
	C919.360535,1106.131226 900.318298,1109.642578 879.824036,1103.516602 
	C859.705627,1097.503052 848.248108,1082.977783 844.330017,1062.576904 
	C843.395325,1057.710083 843.439087,1052.614868 843.407654,1047.622437 
	C843.303101,1030.981201 843.388062,1014.338867 843.345459,997.697083 
	C843.340027,995.564575 843.011536,993.432800 842.438293,990.869873 
	C842.043945,990.438965 842.036438,990.026062 842.100464,989.981567 
	C842.164551,989.937012 842.156189,989.731689 842.156189,989.731689 
	C842.156189,989.731689 841.967957,989.957153 841.659241,989.969055 
	C841.145569,990.001221 840.940613,990.021484 840.545898,990.028931 
	C840.356079,990.016113 839.982239,989.945435 839.635315,989.723755 
	C836.979980,989.334717 834.671692,989.021484 832.363220,989.020935 
	C726.299561,988.996826 620.235962,989.000000 514.172302,989.000061 
	C491.361145,989.000061 468.549713,988.955872 445.739258,989.080994 
	C443.844757,989.091431 441.956573,990.246826 440.065491,990.870239 
	C439.456207,991.033997 438.846954,991.197754 437.817810,991.978638 
	C437.231781,993.403870 436.922028,994.211853 436.920532,995.020325 
	C436.888184,1012.487061 436.870178,1029.953979 436.927734,1047.420532 
	C436.931885,1048.682007 437.535126,1049.941528 437.859833,1051.201904 
M807.822266,318.577026 
	C807.822266,318.577026 807.869263,318.199799 808.731628,318.088959 
	C817.065247,318.171936 823.455139,314.442505 827.945618,307.666992 
	C832.167175,301.297241 833.945862,294.152588 833.979736,286.440948 
	C834.058716,268.466278 825.339905,257.764496 807.354126,254.475327 
	C805.709595,254.316696 804.065063,254.019562 802.420532,254.019226 
	C694.159058,253.997345 585.897583,253.994354 477.636108,254.040268 
	C475.723175,254.041077 473.810547,254.654297 471.178925,255.278244 
	C461.652039,255.981155 455.029419,260.995300 451.109741,269.445831 
	C446.025269,280.407593 445.877563,291.739716 450.628204,302.760834 
	C454.226288,311.108093 460.205078,317.207367 469.604889,318.490204 
	C469.445190,319.139069 469.285461,319.787933 469.125732,320.436768 
	C470.934357,320.620087 472.742676,320.959747 474.551605,320.962891 
	C495.880798,321.000122 517.210083,320.987122 538.539368,320.987122 
	C627.855652,320.987152 717.171936,320.987152 806.488220,320.987152 
	C808.249390,320.987152 810.010498,320.987122 811.771667,320.987122 
	C811.761719,320.542358 811.751770,320.097595 811.741882,319.652832 
	C811.146118,319.441223 810.550415,319.229584 809.221436,319.024780 
	C808.732910,319.000305 808.244324,318.975830 807.822266,318.577026 
M919.007874,636.401245 
	C940.414246,634.009583 950.412231,621.651672 947.950745,600.161133 
	C946.431274,586.894958 944.453186,573.681396 942.690979,560.442871 
	C941.039795,548.037964 939.435608,535.626709 937.751038,523.226318 
	C934.186035,496.983948 930.557434,470.750183 927.001709,444.506561 
	C924.190552,423.758087 921.619507,402.975525 918.624634,382.253937 
	C916.097229,364.766724 904.407837,354.964111 886.799683,354.964172 
	C724.334778,354.964661 561.869873,354.965027 399.404968,354.966309 
	C396.905701,354.966309 394.404755,354.920410 391.907410,354.992767 
	C378.922150,355.369080 366.734619,364.857422 364.212830,377.583679 
	C361.477844,391.385986 359.373810,405.328217 357.454285,419.272705 
	C355.820862,431.138885 355.068542,443.124634 353.524200,455.005157 
	C350.183807,480.702942 346.581635,506.366638 343.093994,532.045349 
	C339.905792,555.519165 336.386688,578.956848 333.787842,602.495911 
	C333.150330,608.270142 334.381348,614.893372 336.766937,620.225403 
	C341.809143,631.495239 351.944366,635.877563 363.353577,636.881287 
	C362.743622,637.050659 362.133667,637.220093 360.189056,637.760132 
	C547.870972,637.760132 734.173767,637.760132 921.516724,637.760132 
	C919.735046,637.194031 918.966187,636.949707 919.007874,636.401245 
M922.258362,869.842468 
	C944.125183,858.419067 955.450562,836.934326 952.976501,811.568604 
	C950.902283,790.302124 934.568420,771.171326 912.244812,764.791992 
	C872.954895,753.564453 834.810120,786.718933 840.785767,827.010071 
	C842.472229,838.380920 847.046875,848.297546 854.495178,856.846558 
	C866.583069,870.720947 882.769958,876.288452 900.399475,876.500000 
	C907.421692,876.584351 914.495789,872.350647 922.258362,869.842468 
M440.958405,822.253113 
	C442.653595,785.433289 410.640594,757.463013 374.789520,763.341064 
	C343.658173,768.445251 323.007355,798.758118 328.601868,829.405579 
	C334.031830,859.151794 364.324860,881.957214 396.563721,874.543274 
	C418.602539,869.474915 438.340576,851.184448 440.958405,822.253113 
M844.068115,994.096680 
	C844.068115,1012.517395 844.068115,1030.938110 844.068115,1049.358887 
	C845.037964,1042.598877 845.094177,1035.828735 845.025452,1029.059937 
	C844.905945,1017.275513 844.709412,1005.491821 844.068115,994.096680 
M950.166016,1030.499756 
	C950.166016,1018.301636 950.166016,1006.103577 950.166016,993.905457 
	C949.876160,993.912964 949.586365,993.920532 949.296509,993.928040 
	C949.296509,1012.378601 949.296509,1030.829224 949.296509,1049.279785 
	C949.586609,1049.282715 949.876709,1049.285645 950.166809,1049.288574 
	C950.166809,1043.358765 950.166809,1037.429077 950.166016,1030.499756 
z"/>
<path fill="#FF08BA" opacity="1.000000" stroke="none" 
	d="
M954.017822,989.945435 
	C955.949707,989.630249 957.880249,989.052063 959.813843,989.041809 
	C974.297363,988.964844 988.781555,989.002197 1003.265503,988.999146 
	C1010.991638,988.997498 1010.998779,988.993408 1010.998840,981.436829 
	C1011.000366,859.072327 1010.991577,736.707825 1011.041443,614.343323 
	C1011.042908,610.712646 1011.657471,607.082275 1012.028687,602.989502 
	C1012.388306,604.810364 1012.982117,607.093445 1012.982910,609.376709 
	C1013.025940,734.911804 1013.023071,860.446899 1012.975708,985.981995 
	C1012.975098,987.634399 1012.345825,989.286499 1011.224548,990.663513 
	C1008.454895,990.255737 1006.470886,990.013367 1004.486267,990.007996 
	C987.663574,989.962585 970.840637,989.960571 954.017822,989.945435 
z"/>
<path fill="#FC16C2" opacity="1.000000" stroke="none" 
	d="
M268.172485,608.422913 
	C268.613922,607.972778 268.978638,607.989380 269.637207,608.473267 
	C269.938873,733.929321 269.952332,858.918030 269.910187,983.906677 
	C269.909424,986.173767 269.245117,988.440552 268.890411,990.707520 
	C268.612579,989.510498 268.091705,988.313538 268.091492,987.116455 
	C268.067596,861.040833 268.082855,734.965271 268.172485,608.422913 
z"/>
<path fill="#FE126C" opacity="1.000000" stroke="none" 
	d="
M269.364136,990.803711 
	C269.245117,988.440552 269.909424,986.173767 269.910187,983.906677 
	C269.952332,858.918030 269.938873,733.929321 269.911041,608.473083 
	C270.259338,610.413147 270.948822,612.820740 270.949860,615.228516 
	C271.002258,736.874939 270.994965,858.521301 271.002502,980.167725 
	C271.002655,982.832214 271.100342,985.496704 271.497925,988.878357 
	C273.817139,989.720642 275.790710,989.948303 277.764984,989.954651 
	C294.502472,990.008789 311.240082,990.022583 327.977661,990.048462 
	C327.977661,990.048401 328.006104,990.463440 328.010803,990.671387 
	C308.622955,990.886230 289.230408,990.893066 269.364136,990.803711 
z"/>
<path fill="#FF08BA" opacity="1.000000" stroke="none" 
	d="
M440.320801,990.914795 
	C441.956573,990.246826 443.844757,989.091431 445.739258,989.080994 
	C468.549713,988.955872 491.361145,989.000061 514.172302,989.000061 
	C620.235962,989.000000 726.299561,988.996826 832.363220,989.020935 
	C834.671692,989.021484 836.979980,989.334717 839.168213,989.737915 
	C708.656982,989.979431 578.265930,989.980835 447.874908,990.026428 
	C445.610443,990.027222 443.346161,990.560547 441.081757,990.845337 
	C440.913239,990.883362 440.744690,990.921448 440.320801,990.914795 
z"/>
<path fill="#FF0263" opacity="1.000000" stroke="none" 
	d="
M441.539734,990.915161 
	C443.346161,990.560547 445.610443,990.027222 447.874908,990.026428 
	C578.265930,989.980835 708.656982,989.979431 839.515137,989.959595 
	C839.982239,989.945435 840.356079,990.016113 840.609863,990.225952 
	C840.863586,990.435791 840.923706,990.844849 840.923706,990.844849 
	C839.927490,990.898682 838.931213,990.999634 837.934998,990.999634 
	C705.955933,990.999512 573.976807,990.992065 441.539734,990.915161 
z"/>
<path fill="#FC16C2" opacity="1.000000" stroke="none" 
	d="
M437.940918,1050.719727 
	C437.535126,1049.941528 436.931885,1048.682007 436.927734,1047.420532 
	C436.870178,1029.953979 436.888184,1012.487061 436.920532,995.020325 
	C436.922028,994.211853 437.231781,993.403870 437.637970,992.241272 
	C437.925995,1011.337097 437.974030,1030.787354 437.940918,1050.719727 
z"/>
<path fill="#FF0263" opacity="1.000000" stroke="none" 
	d="
M953.830078,989.980713 
	C970.840637,989.960571 987.663574,989.962585 1004.486267,990.007996 
	C1006.470886,990.013367 1008.454895,990.255737 1010.799255,990.624756 
	C992.104370,990.902466 973.049438,990.943665 953.565186,990.710266 
	C953.135925,990.435669 953.261292,990.041626 953.261292,990.041626 
	C953.261292,990.041626 953.642395,990.015991 953.830078,989.980713 
z"/>
<path fill="#FF08BA" opacity="1.000000" stroke="none" 
	d="
M841.205322,990.899353 
	C840.923706,990.844849 840.863586,990.435791 840.799622,990.238770 
	C840.940613,990.021484 841.145569,990.001221 841.675171,989.987488 
	C841.999756,989.994019 842.036438,990.026062 842.036438,990.026062 
	C842.036438,990.026062 842.043945,990.438965 842.047852,990.645447 
	C841.863464,990.885925 841.675232,990.919861 841.205322,990.899353 
z"/>
<path fill="#FF08BA" opacity="1.000000" stroke="none" 
	d="
M952.954285,990.011230 
	C953.261292,990.041626 953.135925,990.435669 953.106018,990.640259 
	C952.888794,990.881165 952.701538,990.917542 952.231995,990.902893 
	C951.949768,990.851868 951.956360,990.439148 951.978027,990.216797 
	C951.999695,989.994385 952.030701,989.957397 952.030701,989.957397 
	C952.236206,989.965271 952.441772,989.973083 952.954285,990.011230 
z"/>
<path fill="#FFFFFF" opacity="1.000000" stroke="none" 
	d="
M363.831604,636.663208 
	C351.944366,635.877563 341.809143,631.495239 336.766937,620.225403 
	C334.381348,614.893372 333.150330,608.270142 333.787842,602.495911 
	C336.386688,578.956848 339.905792,555.519165 343.093994,532.045349 
	C346.581635,506.366638 350.183807,480.702942 353.524200,455.005157 
	C355.068542,443.124634 355.820862,431.138885 357.454285,419.272705 
	C359.373810,405.328217 361.477844,391.385986 364.212830,377.583679 
	C366.734619,364.857422 378.922150,355.369080 391.907410,354.992767 
	C394.404755,354.920410 396.905701,354.966309 399.404968,354.966309 
	C561.869873,354.965027 724.334778,354.964661 886.799683,354.964172 
	C904.407837,354.964111 916.097229,364.766724 918.624634,382.253937 
	C921.619507,402.975525 924.190552,423.758087 927.001709,444.506561 
	C930.557434,470.750183 934.186035,496.983948 937.751038,523.226318 
	C939.435608,535.626709 941.039795,548.037964 942.690979,560.442871 
	C944.453186,573.681396 946.431274,586.894958 947.950745,600.161133 
	C950.412231,621.651672 940.414246,634.009583 918.136841,636.423096 
	C916.433105,636.420654 915.600403,636.375183 914.767761,636.375183 
	C732.612854,636.371521 550.457886,636.370422 368.302948,636.382690 
	C366.812500,636.382812 365.322052,636.565674 363.831604,636.663208 
z"/>
<path fill="#FFFEFE" opacity="1.000000" stroke="none" 
	d="
M469.990662,318.124207 
	C460.205078,317.207367 454.226288,311.108093 450.628204,302.760834 
	C445.877563,291.739716 446.025269,280.407593 451.109741,269.445831 
	C455.029419,260.995300 461.652039,255.981155 472.011536,255.210693 
	C473.841949,255.176147 474.839813,255.238007 475.837646,255.238052 
	C585.234070,255.242508 694.630493,255.243210 804.026917,255.232407 
	C805.351562,255.232285 806.676270,255.081146 808.000916,255.000519 
	C825.339905,257.764496 834.058716,268.466278 833.979736,286.440948 
	C833.945862,294.152588 832.167175,301.297241 827.945618,307.666992 
	C823.455139,314.442505 817.065247,318.171936 807.849731,318.059662 
	C696.259094,318.021393 585.550354,318.011963 474.841644,318.010223 
	C473.846222,318.010223 472.850800,318.112976 471.548096,318.098938 
	C470.824066,318.061523 470.407379,318.092865 469.990662,318.124207 
z"/>
<path fill="#FFFEFF" opacity="1.000000" stroke="none" 
	d="
M921.902283,869.962524 
	C914.495789,872.350647 907.421692,876.584351 900.399475,876.500000 
	C882.769958,876.288452 866.583069,870.720947 854.495178,856.846558 
	C847.046875,848.297546 842.472229,838.380920 840.785767,827.010071 
	C834.810120,786.718933 872.954895,753.564453 912.244812,764.791992 
	C934.568420,771.171326 950.902283,790.302124 952.976501,811.568604 
	C955.450562,836.934326 944.125183,858.419067 921.902283,869.962524 
z"/>
<path fill="#FFFEFF" opacity="1.000000" stroke="none" 
	d="
M440.949280,822.713623 
	C438.340576,851.184448 418.602539,869.474915 396.563721,874.543274 
	C364.324860,881.957214 334.031830,859.151794 328.601868,829.405579 
	C323.007355,798.758118 343.658173,768.445251 374.789520,763.341064 
	C410.640594,757.463013 442.653595,785.433289 440.949280,822.713623 
z"/>
<path fill="#ED008A" opacity="1.000000" stroke="none" 
	d="
M363.592590,636.772217 
	C365.322052,636.565674 366.812500,636.382812 368.302948,636.382690 
	C550.457886,636.370422 732.612854,636.371521 914.767761,636.375183 
	C915.600403,636.375183 916.433105,636.420654 917.731567,636.575195 
	C918.966187,636.949707 919.735046,637.194031 921.516724,637.760132 
	C734.173767,637.760132 547.870972,637.760132 360.189056,637.760132 
	C362.133667,637.220093 362.743622,637.050659 363.592590,636.772217 
z"/>
<path fill="#FC16C2" opacity="1.000000" stroke="none" 
	d="
M469.797791,318.307190 
	C470.407379,318.092865 470.824066,318.061523 471.686340,318.297729 
	C472.376221,318.779999 472.649933,318.946472 473.304443,319.287720 
	C475.300629,319.667908 476.945374,319.962341 478.590149,319.962677 
	C587.119812,319.984375 695.649475,319.987274 804.179138,319.942169 
	C806.104431,319.941376 808.029541,319.339417 809.954712,319.017944 
	C810.550415,319.229584 811.146118,319.441223 811.741882,319.652832 
	C811.751770,320.097595 811.761719,320.542358 811.771667,320.987122 
	C810.010498,320.987122 808.249390,320.987152 806.488220,320.987152 
	C717.171936,320.987152 627.855652,320.987152 538.539368,320.987122 
	C517.210083,320.987122 495.880798,321.000122 474.551605,320.962891 
	C472.742676,320.959747 470.934357,320.620087 469.125732,320.436768 
	C469.285461,319.787933 469.445190,319.139069 469.797791,318.307190 
z"/>
<path fill="#ED008A" opacity="1.000000" stroke="none" 
	d="
M809.588074,319.021362 
	C808.029541,319.339417 806.104431,319.941376 804.179138,319.942169 
	C695.649475,319.987274 587.119812,319.984375 478.590149,319.962677 
	C476.945374,319.962341 475.300629,319.667908 473.776489,319.264221 
	C477.062378,319.007324 480.227631,318.988251 483.392883,318.987854 
	C591.513855,318.974609 699.634827,318.963104 807.755798,318.951355 
	C808.244324,318.975830 808.732910,319.000305 809.588074,319.021362 
z"/>
<path fill="#F40051" opacity="1.000000" stroke="none" 
	d="
M807.677490,254.737915 
	C806.676270,255.081146 805.351562,255.232285 804.026917,255.232407 
	C694.630493,255.243210 585.234070,255.242508 475.837646,255.238052 
	C474.839813,255.238007 473.841949,255.176147 472.370941,255.062469 
	C473.810547,254.654297 475.723175,254.041077 477.636108,254.040268 
	C585.897583,253.994354 694.159058,253.997345 802.420532,254.019226 
	C804.065063,254.019562 805.709595,254.316696 807.677490,254.737915 
z"/>
<path fill="#FF2245" opacity="1.000000" stroke="none" 
	d="
M807.789062,318.764191 
	C699.634827,318.963104 591.513855,318.974609 483.392883,318.987854 
	C480.227631,318.988251 477.062378,319.007324 473.425049,319.041168 
	C472.649933,318.946472 472.376221,318.779999 471.993622,318.366486 
	C472.850800,318.112976 473.846222,318.010223 474.841644,318.010223 
	C585.550354,318.011963 696.259094,318.021393 807.418579,318.115082 
	C807.869263,318.199799 807.822266,318.577026 807.789062,318.764191 
z"/>
<path fill="#FC16C2" opacity="1.000000" stroke="none" 
	d="
M844.306641,993.902222 
	C844.709412,1005.491821 844.905945,1017.275513 845.025452,1029.059937 
	C845.094177,1035.828735 845.037964,1042.598877 844.068115,1049.358887 
	C844.068115,1030.938110 844.068115,1012.517395 844.306641,993.902222 
z"/>
<path fill="#FC16C2" opacity="1.000000" stroke="none" 
	d="
M950.166382,1030.999512 
	C950.166809,1037.429077 950.166809,1043.358765 950.166809,1049.288574 
	C949.876709,1049.285645 949.586609,1049.282715 949.296509,1049.279785 
	C949.296509,1030.829224 949.296509,1012.378601 949.296509,993.928040 
	C949.586365,993.920532 949.876160,993.912964 950.166016,993.905457 
	C950.166016,1006.103577 950.166016,1018.301636 950.166382,1030.999512 
z"/>
<path fill="#FF08BA" opacity="1.000000" stroke="none" 
	d="
M327.908325,989.774414 
	C311.240082,990.022583 294.502472,990.008789 277.764984,989.954651 
	C275.790710,989.948303 273.817139,989.720642 271.534058,989.352905 
	C289.476532,989.075256 307.728210,989.035278 325.979858,989.026062 
	C326.599518,989.025757 327.219269,989.335266 327.908325,989.774414 
z"/>
<path fill="#FF08BA" opacity="1.000000" stroke="none" 
	d="
M841.983887,989.975586 
	C841.967957,989.957153 842.156189,989.731689 842.156189,989.731689 
	C842.156189,989.731689 842.164551,989.937012 842.100464,989.981567 
	C842.036438,990.026062 841.999756,989.994019 841.983887,989.975586 
z"/>
<path fill="#FF08BA" opacity="1.000000" stroke="none" 
	d="
M951.981689,990.010376 
	C951.963623,990.026428 951.743042,989.832703 951.743042,989.832703 
	C951.743042,989.832703 951.945679,989.827026 951.988159,989.892212 
	C952.030701,989.957397 951.999695,989.994385 951.981689,990.010376 
z"/>
</svg>